<svg xmlns="http://www.w3.org/2000/svg" xmlns:xlink="http://www.w3.org/1999/xlink" width="760.9" height="745.141" viewBox="0 0 760.9 745.141">
  <defs>
    <clipPath id="clip-path">
      <rect width="760.9" height="745.141" fill="none"/>
    </clipPath>
    <clipPath id="clip-path-2">
      <rect width="160.017" height="315.447" fill="none"/>
    </clipPath>
    <clipPath id="clip-path-3">
      <rect width="53.213" height="69.505" fill="none"/>
    </clipPath>
    <clipPath id="clip-path-4">
      <rect width="115.954" height="182.547" fill="none"/>
    </clipPath>
    <clipPath id="clip-path-5">
      <rect width="44.157" height="15.786" fill="none"/>
    </clipPath>
    <clipPath id="clip-path-7">
      <rect width="160.017" height="138.367" fill="none"/>
    </clipPath>
    <clipPath id="clip-path-8">
      <rect width="48.585" height="79.95" fill="none"/>
    </clipPath>
    <clipPath id="clip-path-9">
      <rect width="236.113" height="182.547" fill="none"/>
    </clipPath>
    <clipPath id="clip-path-10">
      <rect width="198.43" height="151.141" fill="none"/>
    </clipPath>
  </defs>
  <g id="Group_229" data-name="Group 229" transform="translate(-263.701 -155)">
    <g id="Group_226" data-name="Group 226" transform="translate(193.701 -388.692)">
      <g id="Scene_Whiteboard" data-name="Scene/Whiteboard" transform="translate(70 543.692)" clip-path="url(#clip-path)">
        <g id="Background_Shape_2" data-name="Background Shape 2" transform="translate(23.731 518.75)" opacity="0.505">
          <path id="Background_Shape" data-name="Background Shape" d="M697.626,127.538c10.173,57-236.552,94.186-448.914,68.238S-61.072,68.5,40.264,14.5,687.452,70.534,697.626,127.538Z" transform="translate(0 0)" fill="#c5fff7"/>
        </g>
        <path id="Leaf_Bottom" data-name="Leaf Bottom" d="M147.412,198.587a35.725,35.725,0,0,1-.764,4.583A13.688,13.688,0,0,0,147.412,198.587Zm-8.273-35.908a88.067,88.067,0,0,0-18.085-24.792c1.459-5.3,15.65-13.584,6.678-17.969-4.764-2.318-9.284,2.179-10.06,6.731-.533,3.128.73,6.957,2.011,9.9q-3.441-3.306-7.11-6.375c-3.373-2.828-6.818-5.565-10.293-8.265,5.209-5.433,9.622-20.417,2.151-22.438-11.032-2.974-4.758,16.819-3.8,20.541a.59.59,0,0,0,.5-.218c-.043.348-.094.72-.161,1.1-6.649-5.137-13.387-10.162-19.925-15.437a28.641,28.641,0,0,0,2.011-2.963,32.142,32.142,0,0,0,3.892-6.349c1.567-3.616,2.963-9.326-1.791-11.155-5.169-1.994-7.236,4.49-7.073,8.285.113,2.624.958,5.079,1.465,7.63.159.8-.1,4.434.911,2.822a7.747,7.747,0,0,0,.034,1.285q-1.76-1.428-3.5-2.886a1.358,1.358,0,0,0,.075-.441,1.312,1.312,0,0,0-1.941-1.136q-2.3-1.964-4.542-3.995C67.412,93.673,64.2,90.714,61,87.687c.628-.6.326-1.367.909-2s1.774-1.024,2.466-1.618A17.469,17.469,0,0,0,68.5,78.4C70.124,75,72.081,67.926,66.75,66.623c-5.5-1.346-7.892,5.486-8.02,9.685A106.83,106.83,0,0,0,60.3,87.014c-5.915-5.627-11.749-11.48-17.071-17.467,1.514-.093,5.644-3.421,6.468-4.313,2.009-2.176,5.136-6.915,1.3-9.134-3.413-1.969-7.32,1.347-8.573,4.435a42.411,42.411,0,0,0-.737,7.248c-2.206-2.542-4.318-5.1-6.292-7.682q-1.976-2.571-3.723-5.287a2.471,2.471,0,0,0,.691-.755c5.457-1.223,12.026-10.181,5.4-12.831-3.153-1.26-6.339,1.848-7.721,4.329a32.028,32.028,0,0,0-.96,4.974A103.213,103.213,0,0,1,20.842,31.5a1.2,1.2,0,0,0,.88-1.164c2.593-1.664,4.637-3.043,6.35-6.071,1.064-1.881,2.934-6.149-.525-6.981-4.5-1.082-6.931,5.834-7.119,9.188-.022.389.038,1.515.107,2.546a1.489,1.489,0,0,0-.462.032c-1.235-4.1-2.268-8.257-3.135-12.433,2.379-.905,2.131-13.634.426-15.358C13.55-2.6,11.317,3.38,11.671,6.462a20.442,20.442,0,0,0,4.366,9.707c.228.3.166.289.2-.148a.871.871,0,0,0,.234.476,55.325,55.325,0,0,0,.088,5.594,129.483,129.483,0,0,0,2.425,14.472q.392,1.735.868,3.438a28.243,28.243,0,0,0-5.78-3.3c-2.725-1.054-6.9-2.127-9.435.033a4.456,4.456,0,0,0-.159,6.67c2.26,2.275,6.152,1.983,9.049,1.6,1.31-.174,8.307-1.105,6.581-2.167a5.678,5.678,0,0,1,.7.289q.275.832.573,1.657c-.04.026-.074.054-.117.08.047-.023.079-.048.12-.071a64.569,64.569,0,0,0,8.076,15.492,15.184,15.184,0,0,0-3.687-.781c-3.69-.272-11.252,2.981-6.9,7.647,4.177,4.473,10.034-.868,14.46-1.793A208.948,208.948,0,0,0,48.35,82.045a1.19,1.19,0,0,0-.7.645c-2.059-.913-4.226-2.26-6.1-2.557-2.709-.428-8.221-.484-10.12,2.02-2.337,3.08.459,5.335,3.431,5.746,4.31.6,9.786-1.781,13.818-3.4a1.358,1.358,0,0,0,1.266-.5l.265-.1c5.356,5.3,10.9,10.411,16.4,15.4h-.17a14.2,14.2,0,0,0-4.516-1.78c-3.713-.7-8.027-.48-10.864,2.329s-3.633,7.472-.411,10.277c6.449,5.616,14.782-8.4,17.847-9.123,5.589,5.017,11.463,9.671,17.421,14.22a10.163,10.163,0,0,0-2.02-.3c-5.621-.242-18.39,7.3-11.172,13.69,6.29,5.565,12.62-6.113,17.233-10.323,5.611,4.237,11.251,8.441,16.748,12.828a15.3,15.3,0,0,0-8.7.511c-3.127,1.128-8.129,3.8-5.9,7.981,2.272,4.257,8.325,1.948,11.459.395,1.71-.847,5.083-3.581,8.106-4.816a105.623,105.623,0,0,1,22.547,25.788,92.4,92.4,0,0,1,8.931,19.886c1.406,4.432,4.106,11.857,3.951,17.729C148.686,186.766,143.972,172.917,139.139,162.679ZM16.04,22.735c-.468,0-2.224-4.747-2.777-5.45A15.829,15.829,0,0,0,7,12.744c-3.847-1.663-8.732.755-6.39,5.561,1.87,3.836,6.937,4.608,11.324,4.608C13.434,22.914,14.854,22.823,16.04,22.735Z" transform="translate(505.732 398.379) rotate(3)" fill="#f2f2f2"/>
        <path id="Leaf_Top" data-name="Leaf Top" d="M0,143.243A16.7,16.7,0,0,0,.764,146.3,6.453,6.453,0,0,1,0,143.243Zm6.113-25.614A63.721,63.721,0,0,1,19.317,99.7C18.252,95.869,7.89,89.881,14.441,86.71c3.479-1.676,6.779,1.576,7.346,4.868.389,2.262-.533,5.031-1.468,7.158q2.512-2.39,5.191-4.61c2.463-2.045,4.978-4.024,7.516-5.976-3.8-3.929-7.025-14.763-1.57-16.224,8.054-2.151,3.474,12.162,2.777,14.853a.434.434,0,0,1-.362-.157c.031.251.069.52.117.792,4.855-3.715,9.775-7.348,14.548-11.162a20.729,20.729,0,0,1-1.468-2.143,23.168,23.168,0,0,1-2.842-4.591c-1.145-2.615-2.163-6.744,1.307-8.066,3.775-1.442,5.283,3.247,5.164,5.99a36.1,36.1,0,0,1-1.07,5.518c-.115.575.073,3.206-.665,2.04a5.594,5.594,0,0,1-.025.929q1.286-1.032,2.554-2.087a.981.981,0,0,1-.054-.319.959.959,0,0,1,1.417-.822q1.677-1.42,3.317-2.888c2.311-2.079,4.657-4.219,6.991-6.407-.459-.433-.238-.989-.663-1.445s-1.3-.74-1.8-1.169a12.636,12.636,0,0,1-3.01-4.1c-1.186-2.463-2.615-7.575,1.278-8.517,4.012-.973,5.762,3.966,5.856,7a76.471,76.471,0,0,1-1.145,7.741c4.319-4.068,8.579-8.3,12.465-12.63-1.105-.067-4.121-2.473-4.723-3.118-1.467-1.573-3.751-5-.947-6.605,2.492-1.423,5.345.973,6.26,3.207a30.293,30.293,0,0,1,.538,5.241c1.611-1.838,3.152-3.691,4.595-5.555q1.442-1.858,2.718-3.822a1.789,1.789,0,0,1-.5-.546C80.1,38.2,75.3,31.727,80.137,29.811c2.3-.911,4.628,1.337,5.637,3.13a22.935,22.935,0,0,1,.7,3.6,74.2,74.2,0,0,0,6.014-13.763.871.871,0,0,1-.643-.841,11.939,11.939,0,0,1-4.636-4.391c-.777-1.36-2.142-4.446.384-5.047,3.287-.782,5.061,4.219,5.2,6.643.016.282-.028,1.1-.078,1.841A1.111,1.111,0,0,1,93.05,21c.9-2.962,1.656-5.971,2.289-8.991-1.736-.654-1.556-9.858-.311-11.1,2.784-2.793,4.415,1.534,4.157,3.764A14.721,14.721,0,0,1,96,11.691c-.166.217-.121.209-.144-.107a.624.624,0,0,1-.171.344,39.509,39.509,0,0,1-.065,4.045,92.789,92.789,0,0,1-1.77,10.464q-.287,1.256-.634,2.486a20.7,20.7,0,0,1,4.221-2.383c1.99-.762,5.035-1.538,6.889.024a3.2,3.2,0,0,1,.115,4.823c-1.65,1.644-4.492,1.434-6.607,1.156-.957-.126-6.066-.8-4.806-1.567a4.219,4.219,0,0,0-.511.21q-.2.6-.418,1.2c.03.019.054.039.085.058-.034-.017-.058-.035-.087-.052a46.535,46.535,0,0,1-5.9,11.2,11.189,11.189,0,0,1,2.693-.565c2.695-.2,8.216,2.156,5.035,5.53-3.05,3.234-7.327-.628-10.558-1.3A151.659,151.659,0,0,1,72.4,59.325a.867.867,0,0,1,.509.467,21.6,21.6,0,0,1,4.457-1.848c1.978-.309,6-.35,7.389,1.461,1.705,2.227-.335,3.858-2.506,4.155-3.146.431-7.145-1.288-10.089-2.462a.994.994,0,0,1-.924-.36l-.194-.074C67.136,64.5,63.09,68.192,59.073,71.8H59.2a10.439,10.439,0,0,1,3.3-1.288c2.711-.507,5.862-.346,7.932,1.684s2.653,5.4.3,7.431c-4.709,4.061-10.793-6.071-13.032-6.6-4.081,3.627-8.37,6.992-12.72,10.282a7.434,7.434,0,0,1,1.475-.219c4.1-.175,13.427,5.28,8.158,9.9-4.593,4.024-9.215-4.42-12.583-7.464-4.1,3.064-8.215,6.1-12.228,9.275a11.278,11.278,0,0,1,6.353.37c2.284.816,5.936,2.745,4.3,5.772-1.659,3.077-6.078,1.408-8.367.285-1.248-.612-3.711-2.589-5.918-3.482A76.59,76.59,0,0,0,9.706,116.4a66.507,66.507,0,0,0-6.521,14.379c-1.026,3.2-3,8.573-2.885,12.82C-.857,135.046,2.584,125.032,6.113,117.629ZM95.667,16.084c.334,0,1.589-3.392,1.983-3.894a11.309,11.309,0,0,1,4.474-3.243c2.748-1.188,6.237.54,4.564,3.973-1.337,2.741-4.957,3.292-8.092,3.292C97.527,16.211,96.513,16.147,95.667,16.084Z" transform="translate(85.607 166.107) rotate(-3)" fill="#acd6db" opacity="0.78"/>
        <g id="Plant_Right" data-name="Plant Right" transform="translate(564.506 438.391)" opacity="0.7">
          <path id="Leaf_Me_Alone_" data-name="Leaf Me Alone!" d="M20.7.031C31.122.583,43.312,7.984,43.233,19.373c-.057,8.275-1.164,16.416-.78,24.725A66.583,66.583,0,0,0,46.448,63.49c2.157,6.015,7.367,11.49,8.213,17.763a26.381,26.381,0,0,1-2.277,13.1c-2.078,4.468-1.194,4.19,1.567,8.412,5.411,8.274,10.182,16.678,13.181,26.2,4.319,13.71,6.444,29.428,2.821,43.557-.461,1.794-1.467,8.3-4.025,8.494-2.857.217-1.153-3.386-.876-4.579,1.764-7.609,3.32-14.259,2.992-22.21C66.78,123.545,47.2,101.363,35.783,74.24c-.637-1.4-1.944-4.724-2.864-6.921-1.453-3.468-2.6-9.9-4.783-12.586-4.1-5.063-.856,4.59-.148,6.442.9,2.343,1.889,4.837,2.842,6.907,4.345,9.589,9.218,20.071,13.708,29.957C20.323,100.941,6.656,70.759,2.274,51.4-1.336,35.451-3.808-1.212,20.7.031" transform="matrix(0.995, -0.105, 0.105, 0.995, 0, 90.262)" fill="#69a1ac"/>
          <path id="Leaf_Me_Alone_2" data-name="Leaf Me Alone!" d="M77.758.093C60.327,1.476,49.136,12.978,43.926,29.067c-2.808,8.67-3.129,17.577-4.69,26.487-2.347,13.405-7.4,23.564-17.267,33.114a33.327,33.327,0,0,0-6.911,9.244,39.372,39.372,0,0,0-7.979,11.4c-2.6,5.732-3.332,12.609-.333,18.323.806,1.536,2.817,4.62,4.9,6.021-7.8,16.62-12.095,34.823-11.611,53,.292,10.974.828,21.953,1.453,32.913.168,2.943,1.127,7.8,2.566,2.867,1.317-4.514-.335-11.6-.488-16.318-.744-22.976-1.38-43.866,8.078-65.332q1.488-3.375,3.138-6.7a2.224,2.224,0,0,0,.184-.126c.042.032.08.067.121.1.07-.125.166-.273.277-.439a5.921,5.921,0,0,0,.849-1.191c.839-1.163,1.788-2.528,1.793-3.276,0-.006,0-.015,0-.021A309.307,309.307,0,0,1,37.419,101.7c-.051.064,7.43-10.122,6.273-4.489-.558,2.715-6.061,7.884-8.283,10.76a268.072,268.072,0,0,0-15.488,22.341c-.646.371-1.558,2.193-2.217,3.549-.364.687-.7,1.381-1.038,1.984,17,5.617,30.224-5.7,39.241-18.856.011-.015.021-.032.031-.047A57.181,57.181,0,0,1,65,106.821c5.859-4.8,12.133-5.642,19.041-8,18.838-6.436,26.847-30.85,29.391-48.965,2.87-20.437-11.168-51.775-35.678-49.76" transform="translate(82.589 59.281)" fill="#89c5cc"/>
          <path id="Leaf_Me_Alone_3" data-name="Leaf Me Alone!" d="M74.919,1.743C54.61,17.692,42.456,42.065,32.3,65.156c-11.344,25.79-20.176,52.356-24.292,80.249-2.7,18.326-5.8,36.714-7.3,55.187a196.89,196.89,0,0,0-.675,19.752c.011.541.3,15.238,2.977,12.2,1.523-1.728-.27-15.243-.239-17.447a282.672,282.672,0,0,1,3.347-37.036c2.967-20.216,5.2-40.429,10.083-60.3a68.883,68.883,0,0,1,2.544-8.938c1.2-3.024.04-1.793,2.687-2.685,2.572-.867,5.516-.278,8.222-1.439,10.73-4.606,17.953-19.3,23.309-28.848,6.127-10.923,10.6-22.86,14.49-34.714a256.683,256.683,0,0,0,7.177-26.387,70.65,70.65,0,0,1,1.991-8.53c.257-.735,1.2-1.967,1.27-2.641.141-1.426-.6-2.38-.5-3.581q-1.253.845-2.47,1.743" transform="translate(51.481 10.843) rotate(-8)" fill="#89c5cc"/>
          <path id="Base" d="M0,0A55.757,55.757,0,0,0,55.757,55.757,55.757,55.757,0,0,0,111.514,0" transform="translate(28.359 250.23)" fill="#89c5cc"/>
          <path id="Leaf_Me_Alone_4" data-name="Leaf Me Alone!" d="M58.418,69.506a8.56,8.56,0,0,1-5.843-2.053,11.726,11.726,0,0,1-3.148-5.061c-1.433-4.131-1.569-9.206-1.659-12.565-.234-8.743-1.132-17.858-9.136-24.783-.943-.815-1.948-1.59-2.92-2.34-.867-.669-1.764-1.361-2.612-2.078l-.406-.342c-2.728-2.292-5.548-4.662-5.894-8.41-.192-2.083.143-3.614,1-4.551a4.317,4.317,0,0,1,3.377-1.2,13.893,13.893,0,0,1,2.87.351c.151.032.556.186,1.117.4,1.6.607,4.278,1.622,5.708,1.622.439,0,.728-.1.858-.294a.853.853,0,0,0-.038-.8c-.33-.791-1.462-1.491-3.365-2.078-3.829-.417-7.444-.791-9.6-.791a7.127,7.127,0,0,0-1.392.1C20.2,6.2,14.359,11.565,9.973,20.583,5.648,29.475,4,39.371,3.4,44.478c-.163,1.384-.31,2.882-.45,4.582H0A99.416,99.416,0,0,1,1.093,38.019c.836-4.947,2.96-14.484,7.789-22.782a33.81,33.81,0,0,1,7.611-9.261A21.16,21.16,0,0,1,27.054,1.238a15.635,15.635,0,0,1,1.7-.062c1.108,0,2.443.042,3.759.119A9.805,9.805,0,0,1,36.684.065C37.267.022,37.865,0,38.461,0A30.252,30.252,0,0,1,48.512,1.841a43.292,43.292,0,0,1,9.6,4.883,50.1,50.1,0,0,1,8.3,6.962,42.081,42.081,0,0,1,6.141,8.08,31.18,31.18,0,0,1,3.829,15.547A50.333,50.333,0,0,1,73.7,53.3a36.6,36.6,0,0,1-5.374,10.561c-2.884,3.706-6.171,5.606-9.768,5.647Z" transform="translate(85.643 201.347)" fill="#69a1ac"/>
        </g>
        <g id="Plant_Left" data-name="Plant Left" transform="translate(0 339.566)" opacity="0.5">
          <path id="Leaf" d="M49.817,17.907C53.027,13.33,58.983,1.707,63.5.072c2.91-1.053,2.061,9.843,2.1,11.92a174.155,174.155,0,0,1-1.609,24C62.248,50.362,56.555,63.164,48.747,75.4c-4.018,6.3-8.731,12.667-15.258,16.6-3,1.809-6.62,2.112-9.587,3.67-3.456,1.814-1.574.348-3.131,3.949-2.163,5-2.855,11.449-3.855,16.784C12.321,140.885,1.2,270.341,3.126,295.251c.171,2.208-2.907,2.736-3.061.04C-.752,281,6.317,182.029,9.883,149.663S17.058,88.7,20.677,77.505C25.067,63.92,33,47.583,39.6,34.914A150.648,150.648,0,0,1,49.817,17.907Z" transform="translate(86.309 67.214)" fill="#69a1ac"/>
          <path id="Leaf-2" data-name="Leaf" d="M76.7,1.74c8.352-6.132,17.393,5.441,9.835,11.573-4.178,3.39-8.546,2.184-11.005-.641-1.6,1.946-3.09,3.98-4.526,5.7-4.374,5.237-8.508,10.6-12.459,16.085-8.208,11.4-15.241,23.44-22.6,35.262-7.258,11.667-14.458,23.395-21.036,35.358C9.336,115.212,1.908,127.135,0,138.247,2.895,114.681,13.88,92.03,26.96,71.255c12.974-20.6,27.864-43.107,47.953-59.367A7.115,7.115,0,0,1,76.7,1.74Z" transform="translate(83.254 242.123)" fill="#c1dee2"/>
          <path id="Leaf-3" data-name="Leaf" d="M1.461.024C6.135.938,13.772,11.511,17.625,15.539A150.885,150.885,0,0,1,30.273,30.775a257.686,257.686,0,0,1,22.378,36.5,339.27,339.27,0,0,1,24.9,64.8,267.3,267.3,0,0,1,7.555,42.5c.27,2.691,3.091,23.439-.975,24-3.657.5-2.527-15.754-2.7-17.966-1.994-24.95-7.968-49.225-16.277-72.742-1.81-5.123-3.491-11.4-6.386-16.007-2.084-3.321-.015-2.163-3.678-3.419-3.145-1.08-6.729-.816-9.95-2.137-7-2.869-12.6-8.44-17.51-14.043C18.083,61.372,10.521,49.592,6.578,35.639A176.323,176.323,0,0,1,1.267,12.146C.978,10.084-1.549-.565,1.461.024Z" transform="translate(0 186.366)" fill="#69a1ac"/>
          <path id="Leaf-4" data-name="Leaf" d="M10.74,10.476a423.545,423.545,0,0,1,41.415,98.041c5.66,20.582,9.618,41.7,13.551,62.67,6.089,32.466,11.849,64.929,13.487,97.971,1.648,33.234,4.908,71.565-5.975,103.574,5.436-32.5.261-67.09-.656-99.79-.438-15.61-1.707-31.068-3.371-46.587-1.615-15.054-4.254-30.037-6.712-44.973q-1.8-10.911-3.734-21.8c-.382-2.166-.544-8.592-1.917-10.072s-8.438-2.1-10.653-3.189a57.191,57.191,0,0,1-12.369-8.631c-7.118-6.332-13.31-14.606-18.2-22.763C4.3,96.058-.22,73.027.008,51.17.052,46.926,6.877,1.23,4.136.6Q4.383.31,4.6,0,7.717,5.212,10.74,10.476Z" transform="translate(9.166)" fill="#89c5cc"/>
          <path id="Leaf-5" data-name="Leaf" d="M125.909,2.969c.272-.392,2.04-3.117,1.149-2.943,1.813-.355-2.493,3.005,2.023.944-2.145,2.025-.907,4.656-.878,7.382A66.109,66.109,0,0,1,126.676,21.5a90.144,90.144,0,0,1-6.127,19.868C114.341,55.242,103.8,68.6,91.288,77.274c-6.178,4.283-12.232,5.741-19.277,7.713-4.45,1.246-4.8,3.548-7.165,7.866-4.918,8.994-9.748,17.956-14.085,27.254-5.179,11.1-10.206,22.217-14.949,33.515C19.835,191.68,6.832,231.108,0,271.911c-.167-24.045,5.4-48.81,12.412-71.729,5.111-16.7,11.765-32.8,18.862-48.729,1.72-3.86,4.326-8.826,5.056-13.087.511-2.986-1.052-5.858-1.768-9a94.211,94.211,0,0,1-.14-38.287c2.7-13.579,10.516-19.882,23.734-21.806,4.834-.7,10.978-.446,15.411-2.507C78.4,64.518,80.392,57.14,83.138,52.4a195.276,195.276,0,0,1,26.2-35.642A85,85,0,0,1,118.3,8.516C120.308,6.915,124.543,4.942,125.909,2.969Z" transform="translate(84.017 117.624)" fill="#89c5cc"/>
          <path id="Base-2" data-name="Base" d="M.832,4.376A3.819,3.819,0,0,1,4.61,0H51.52A3.819,3.819,0,0,1,55.3,4.376L51.673,28.962A15.276,15.276,0,0,1,36.56,42.009H19.57A15.276,15.276,0,0,1,4.458,28.962Z" transform="translate(57.098 363.567)" fill="#c1dee2"/>
        </g>
        <g id="Maceta" transform="translate(7.638 678.691)">
          <path id="Base-3" data-name="Base" d="M0,0C0,16.259,1.283,29.44,18.505,29.44S37.01,16.259,37.01,0" transform="translate(11.776 37.01)" fill="#f2f2f2"/>
          <path id="Fill_27" data-name="Fill 27" d="M35.4,26.866A34.04,34.04,0,0,0,33.713,30.2a45.632,45.632,0,0,1,.463-7.048c.6-4.071,1.518-8.12,2.38-12.163.62-2.905.58-8.124,2.932-10.439.645-.5.8.481.8.907.008.09,0-1.739-.628-1.42C35.94,1.959,34.735,8,33.544,11.025a58.212,58.212,0,0,0-3.825,13.522,30.289,30.289,0,0,0-.257,3.478c-.126-.31-.245-.622-.377-.93a62.8,62.8,0,0,0-8.659-14.481C19.537,11.5,8.351.5,7.476,2.18a1.161,1.161,0,0,0,.543.609c.016.018.017.008.007-.019.657,1.061,2.525,2.7,3.106,3.63a70.233,70.233,0,0,1,3.758,7.259c2.443,5.147,4.71,10.347,6.907,15.557.512,1.214,1.045,2.42,1.589,3.623C17.779,24.75,10.3,17.407,0,13.2c3.517,1.789,5.823,5.156,8.2,7.734,2.865,3.109,5.882,6.135,8.752,9.24,3.385,3.664,7.369,7.522,10.625,11.576C30.73,48.375,33.8,55,35.687,61.965c-.775-2.405-.061-5.729-.193-8.253a55.758,55.758,0,0,0-.662-5.991,12.3,12.3,0,0,1,.9,2.63c-.142-1.4-.305-2.792-.481-4.177.45-1.3.893-2.506,1.191-3.5a89.972,89.972,0,0,1,5.837-15.03,134.168,134.168,0,0,1,7.8-13.334c1.339-2.021,2.7-4.034,4.047-6.051.883-1.32,1.724-3.434,2.954-4.7C49.132,10.826,40.448,18.146,35.4,26.866" transform="translate(0 0)" fill="#f2f2f2"/>
        </g>
        <g id="Top_Leaves" data-name="Top Leaves" transform="translate(492.808 203.17)">
          <path id="Leaf-6" data-name="Leaf" d="M60.691,99.227c.182-7.933-3.068-15.244-6.666-22.144-7-13.433-10.506-21.47-9.374-37.423.666-9.382,1.462-19.3-3.327-27.816C37.838,5.64,30.524-1,22.8.125,10.574,2.91,3.749,14.559,1.132,26.126c-3.243,14.336.47,25.033,11.3,34.219,6.1,5.175,9.541,10.505,11.2,18.386,1.331,6.3.953,13.529,3.23,19.59,3.4,9.06,9.55,14.593,18.8,16.276-3.336-17.958-8.023-36.514-15.538-53.163-.674-1.648-5.522-8.69-3.505-10.469,2.222-1.958,5.889,9.3,5.86,9.231,2.13,5,3.927,10.169,5.655,15.356l-.029,0q2.675,7.989,5.181,16.123c.645,2.272,1.248,4.558,1.784,6.873.787,3.4.88,12.348,3.111,15a4.811,4.811,0,0,0,1.453,1.211c.894,3.747,1.728,7.5,2.459,11.266,1.909,9.829,3.012,19.91,1.775,29.9-.361,2.917-4.073,13.062-2.843,15.652,2.248,4.737,3.512-2.568,3.992-4.741,3.966-18,2.533-34.892-1.795-52.512,3.979-2.741,7.4-11.895,7.473-15.109" transform="matrix(0.951, -0.309, 0.309, 0.951, 75.552, 18.757)" fill="#acd6db"/>
          <path id="Leaf-7" data-name="Leaf" d="M9,.085c5.806.849,11.287,8.188,13.991,13.08A86.778,86.778,0,0,1,30.43,32.778c2.9,10.955,3.288,23.115,3.324,34.335,0,1.352.286,17.868-1.644,17.6-1.913-.268-.7-17.412-.865-20.962-.347-7.576.172-15.047-1.605-22.527a71.4,71.4,0,0,0-9.475-21.734c-.547-.859-1.7-4.051-3.02-3.313-1.286.721,2.277,4.973,2.783,5.8a73.235,73.235,0,0,1,5.406,10.74,56.593,56.593,0,0,1,4.228,21.731c-4.419.678-8.268-1.909-9.751-6.22C18.53,44.5,18.405,40.164,16.95,36.64a17.187,17.187,0,0,0-4.545-6.23C7.265,25.815,1.9,24.665.365,17.037-.837,11.058.655-1.131,9,.085" transform="matrix(0.53, -0.848, 0.848, 0.53, 35.739, 110.824)" fill="#acd6db"/>
          <path id="Leaf_Me_Alone_5" data-name="Leaf Me Alone!" d="M10.974,42.008a5.265,5.265,0,0,0,3.57-1.241,7.076,7.076,0,0,0,1.923-3.059,26.091,26.091,0,0,0,1.014-7.594c.142-5.284.691-10.793,5.581-14.978.577-.494,1.193-.964,1.789-1.419.528-.4,1.074-.82,1.592-1.252l.235-.2.015-.012c1.666-1.385,3.388-2.817,3.6-5.082a3.511,3.511,0,0,0-.6-2.742A2.646,2.646,0,0,0,27.619,3.7a8.578,8.578,0,0,0-1.753.212c-.092.02-.341.113-.685.242a13.506,13.506,0,0,1-3.485.98c-.269,0-.446-.06-.525-.179a.513.513,0,0,1,.024-.481c.2-.479.894-.9,2.056-1.256,2.338-.252,4.546-.478,5.861-.478a4.4,4.4,0,0,1,.852.06c4.359.946,7.927,4.189,10.607,9.64a46.807,46.807,0,0,1,4.019,14.442c.1.871.2,1.821.286,2.906h1.8A59.032,59.032,0,0,0,46,22.978,42.517,42.517,0,0,0,41.238,9.209a20.485,20.485,0,0,0-4.65-5.6A13,13,0,0,0,30.136.748,9.682,9.682,0,0,0,29.1.71c-.679,0-1.495.026-2.3.073A6.024,6.024,0,0,0,24.252.039C23.9.013,23.53,0,23.166,0a18.66,18.66,0,0,0-6.141,1.113A26.558,26.558,0,0,0,11.16,4.064,30.533,30.533,0,0,0,6.091,8.272a25.465,25.465,0,0,0-3.752,4.883A18.685,18.685,0,0,0,0,22.551a30.13,30.13,0,0,0,1.638,9.66,22.031,22.031,0,0,0,3.283,6.383c1.762,2.24,3.77,3.388,5.967,3.413Z" transform="translate(0 31.11)" fill="#acd6db"/>
        </g>
      </g>
      <g id="A_Human_Standing" data-name="A Human/Standing" transform="translate(245.673 902.147)" clip-path="url(#clip-path-2)">
        <g id="Head_Front" data-name="Head/Front" transform="translate(42.328)" clip-path="url(#clip-path-3)">
          <path id="Hair_Back" data-name="Hair Back" d="M24,49.423c8.729,0,11.9-10.451,16.864-16.186,3.548-4.1,9.6-2.88,11.4-8.624C56.766,10.167,44.7,0,28.962,0S2.611,8.917.32,22.321,8.259,49.423,24,49.423Z" transform="translate(0)" fill="#191847"/>
          <g id="Head" transform="translate(18.651 13.749)">
            <path id="Head-2" data-name="Head" d="M0,55.757,6.311,26.343c-3.519-4.131-5.9-9.194-5.5-14.867,1.147-16.345,23.9-12.75,28.326-4.5s3.9,29.176-1.82,30.65c-2.281.588-7.141-.852-12.087-3.834l3.1,21.963Z" transform="translate(0 0)" fill="#b28b67"/>
          </g>
          <path id="Hair" d="M10.011,33.229h0c-1.014,0-2.648-.976-4.264-2.546a19.979,19.979,0,0,1-4.473-6.641A15.9,15.9,0,0,1,.259,15,19.218,19.218,0,0,1,6.1,4.867,16.055,16.055,0,0,1,17.627,0,22.458,22.458,0,0,1,29.854,4.076c3.133,2.141,5.428,4.793,5.582,6.448a1.18,1.18,0,0,1-1.105,1.365c-3.7.694-10.769,4.178-16.2,8.806a4.806,4.806,0,0,0-2.24-.552,4.649,4.649,0,0,0-4.7,4.582,4.468,4.468,0,0,0,.943,2.753,14.682,14.682,0,0,0-2.124,5.749Z" transform="translate(14.554 8.881)" fill="#191847"/>
        </g>
        <g id="Bottom_Skinny_Jeans_1" data-name="Bottom/Skinny Jeans 1" transform="translate(22.026 132.9)" clip-path="url(#clip-path-4)">
          <path id="Leg" d="M0,0,28.742,93.965l13.923,79.911H53.583L38.87,0Z" transform="translate(32.843 0)" fill="#997659"/>
          <path id="Leg-2" data-name="Leg" d="M21.366,0c1.952,51.592-.345,78.2-.782,82.891S14.164,117.972,0,175.45l11.633-4c22.385-52.716,30.013-80.114,32.581-87.036S53.6,49.357,64.67,0Z" transform="translate(1.194 0)" fill="#b28b67"/>
          <g id="Left_Shoe" data-name="Left Shoe" transform="translate(0 166.761)" clip-path="url(#clip-path-5)">
            <path id="shoe" d="M3.374,3.923a1.505,1.505,0,0,0-1.934,1.03L0,10.088a49.667,49.667,0,0,0,.68,6.03H43.216s1.658-5.551-1.914-5.994-5.935-.8-5.935-.8L15.6.4a.751.751,0,0,0-1,.407L13.321,3.927S10.014,5.49,7.946,5.49Z" transform="translate(0 -0.332)" fill="#e4e4e4"/>
          </g>
          <g id="Right_Shoe" data-name="Right Shoe" transform="translate(71.797 166.761)" clip-path="url(#clip-path-5)">
            <path id="shoe-2" data-name="shoe" d="M3.374,3.923a1.505,1.505,0,0,0-1.934,1.03L0,10.088a49.667,49.667,0,0,0,.68,6.03H43.216s1.658-5.551-1.914-5.994-5.935-.8-5.935-.8L15.6.4a.751.751,0,0,0-1,.407L13.321,3.927S10.014,5.49,7.946,5.49Z" transform="translate(0 -0.332)" fill="#e4e4e4"/>
          </g>
          <path id="Bottom" d="M0,0,12.221,47.874H49.548L43.982,0Z" transform="translate(29.024 0)" fill="#69a1ac"/>
          <path id="Bottom-2" data-name="Bottom" d="M3.811,0C-2.22,18.08,1.52,47.874,1.52,47.874H39.611L50.085,0Z" transform="translate(18.339)" fill="#89c5cc"/>
        </g>
        <g id="Body_Long_Sleeve_1" data-name="Body/Long Sleeve 1" transform="translate(0 52.702)" clip-path="url(#clip-path-7)">
          <path id="Skin" d="M.937,68.644c-.852-.526-1.786-2.5.47-4.052,5.62-3.854,13.719-10.6,14.813-12.818,2.238-4.54,9.86-48.8,9.86-48.8l15.961.063S27.258,50.762,26.08,53.682c-1.767,4.38,1.973,11.051,3.572,14.636-2.521,1.128-3.692-.312-4.974-1.752-1.367-1.535-2.86-3.07-6.251-1.492C14.088,67.092,10.5,70.3,6.225,70.3A9.921,9.921,0,0,1,.937,68.644ZM137.43,25.7l-22.5-13.265L122.117,0l21.637,21.108A65.578,65.578,0,0,1,159.228,30c.9,1.091,1.889,3.181-2.365,2.246s-8.772-1.727-9.572-.344,1.556,3.5.078,5.315a.559.559,0,0,1-.453.217Q144.88,37.436,137.43,25.7Z" transform="translate(0 68.071)" fill="#b28b67"/>
          <path id="Coat_Back" data-name="Coat Back" d="M0,1.7,6.481,0q20.705,40.96,66.08,71.945L53.5,99.724C22.394,69.265,2.025,36.813,0,1.7Z" transform="matrix(0.996, 0.087, -0.087, 0.996, 71.588, 2.375)" fill="#191847"/>
          <path id="Shirt" d="M0,87.073H58.812S38.374,37.378,38.374,2.643L20.633,0C6.691,22.424,2.753,50.032,0,87.073Z" transform="translate(42.648 0)" fill="#dde3e9"/>
          <path id="Coat_Front" data-name="Coat Front" d="M0,112.278C6.432,39.714,46.977,0,46.977,0l.014.012L47,0h1.158c2.079.071,6.332.258,6.332.258l4.287,12.251c.681,22.4,7.944,90.3,7.944,90.3h-38.5q.1,4.669.444,9.466Z" transform="translate(15.915)" fill="#2f3676"/>
          <path id="Shade" d="M10.772,37.807H.047A195.141,195.141,0,0,1,2.949,0,205.393,205.393,0,0,0,5.537,21.146c1.4,7.568,3.158,13.173,5.235,16.659Z" transform="translate(44.097 65.306)" fill="rgba(0,0,0,0.1)"/>
          <path id="Light" d="M0,8.838,19.01,0V8.838Z" transform="translate(52.662 70.597)" fill="rgba(255,255,255,0.2)"/>
        </g>
      </g>
      <g id="Group_225" data-name="Group 225" transform="translate(412.455 887.434)">
        <g id="Humaaan" transform="translate(3.964 0)">
          <g id="Head-3" data-name="Head" transform="matrix(0.978, -0.208, 0.208, 0.978, 80.575, 10.506)" clip-path="url(#clip-path-8)">
            <g id="Head-4" data-name="Head" transform="translate(2.585 6.95)">
              <path id="Head-5" data-name="Head" d="M0,0,8.262,38.51C3.655,43.919.536,50.548,1.057,57.974c1.5,21.4,31.292,16.692,37.086,5.891s5.107-38.2-2.382-40.129c-2.987-.77-9.349,1.116-15.825,5.019L24,0Z" transform="translate(42 73) rotate(180)" fill="#b28b67"/>
            </g>
            <path id="Hair-2" data-name="Hair" d="M38.126,46.308c3.009-13.4,11.581-22.536,10.272-28.526a10.189,10.189,0,0,0-6.979-7.45S38.487-1.543,22.5.23-3.231,8.648.981,23.268c3.872,0,8.547-1.4,15.011,1,3.076,1.143,4.4,7.09,4.4,7.09h2.921S27.566,24.3,31.7,26.171s1.879,9.087,1.879,9.087l1.439,11.049Z" transform="translate(0.052 -0.05)" fill="#191847"/>
          </g>
          <g id="Bottom-3" data-name="Bottom" transform="translate(0 143.031)" clip-path="url(#clip-path-9)">
            <path id="Leg-3" data-name="Leg" d="M108.47,0,51.715,94.884,9.165,175.1H0L71.293,0Z" transform="translate(28.107 0)" fill="#997659"/>
            <path id="Pant" d="M17.674,162.255,0,156.909s11.615-34.724,28.473-76.424S64.681,0,64.681,0H114.6S93.085,49.06,68.984,89.154A681.3,681.3,0,0,1,17.674,162.255Z" transform="translate(31.414 0)" fill="#db2721"/>
            <path id="Leg-4" data-name="Leg" d="M37.337,0C42.693,33.343,53.025,75.942,54,77.257q.975,1.315,70.2,23.524l-1.98,8.082q-82.552-11.911-87-18.482C30.782,83.809,8.594,31.9,0,0Z" transform="translate(102.969 0)" fill="#b28b67"/>
            <path id="Pant-2" data-name="Pant" d="M110.88,93.794l-3.487,13.016q-61.744,5.415-75.664-7.826T0,0H47.6Q58.884,70.213,60.217,73.16T110.88,93.794Z" transform="translate(100.068)" fill="#ff4133"/>
          </g>
          <g id="Body" transform="translate(15.277 56.51)" clip-path="url(#clip-path-10)">
            <path id="Skin-2" data-name="Skin" d="M1.024,1.8C.092,2.378-.927,4.54,1.536,6.23c6.139,4.209,14.985,11.576,16.181,14,2.445,4.96,23.837,68.8,23.837,68.8l18.27-.069S29.775,21.337,28.488,18.147c-1.931-4.784,2.155-12.07,3.9-15.986C29.636.929,28.356,2.5,26.956,4.074c-1.493,1.677-3.124,3.354-6.828,1.63C15.389,3.5,11.471,0,6.8,0A10.837,10.837,0,0,0,1.024,1.8Zm144.01,94.847,32.941,4.493a71.825,71.825,0,0,0,18.186,7.444c1.557.045,4.035-.521.344-3.6s-7.436-6.481-6.778-8.123,4.09-1.031,4.659-3.557q.569-2.525-16.713-.821l-26.729-10.6Z" transform="translate(198.43 151.141) rotate(180)" fill="#997659"/>
            <path id="Clothes_Back" data-name="Clothes Back" d="M0,81.93l14.333.3C20.62,50.784,41.49,32.4,83.7,42.935l9.263-40.39C53.409-6.124,16.926,6.822,5.942,49.554,3.1,60.616.607,72.169,0,81.93Z" transform="matrix(-0.996, 0.087, -0.087, -0.996, 113.974, 85.79)" fill="#afb9c5"/>
            <path id="Clothes" d="M0,0Q14.9,79.262,62.885,122.643H64.3l.011-.013,21.673-4.964c0-37.277,11.874-61.059,17.965-88.465H45.421C44.6,19.731,44.09,10,43.826,0Z" transform="translate(178.207 122.643) rotate(180)" fill="#c5cfd6"/>
            <path id="Shade-2" data-name="Shade" d="M11.895,0H0c1.787,20.522,4.937,38.37,9.631,54.564C8.608,37.335,8.168,13.883,11.9,0Z" transform="translate(132.785 93.443) rotate(180)" fill="rgba(0,0,0,0.1)"/>
          </g>
        </g>
        <path id="Path_414" data-name="Path 414" d="M425.818,1524.872c-11.127,4.051-21.543,8.465-21.543,8.465l-11.914,2.183v4.744h42.408s.321.461,2.2-4.744-2.2-9.863-2.2-9.863l-4.187,1.239" transform="translate(-392.36 -1210.085)"/>
        <path id="Path_415" data-name="Path 415" d="M33.458,0C22.331,4.05,11.914,8.465,11.914,8.465L0,10.649v4.744H42.408s.321.461,2.2-4.744-2.2-9.863-2.2-9.863L38.221,2.024" transform="matrix(0.309, -0.951, 0.951, 0.309, 215.369, 283.199)"/>
      </g>
    </g>
  </g>
</svg>
